<svg xmlns="http://www.w3.org/2000/svg" width="808" height="586" viewBox="0 0 808 586">
  <rect width="100%" height="100%" fill="#020617" />
  <text x="36" y="25" fill="#e2e8f0" font-family="monospace" font-size="17" font-weight="700">VALIDATED-ROUTE BOT SWARM / FINAL FRAME</text>
  <rect x="36" y="36" width="46" height="46" fill="#111827" stroke="#334155" stroke-width="1" /><rect x="82" y="36" width="46" height="46" fill="#111827" stroke="#334155" stroke-width="1" /><rect x="128" y="36" width="46" height="46" fill="#111827" stroke="#334155" stroke-width="1" /><rect x="174" y="36" width="46" height="46" fill="#111827" stroke="#334155" stroke-width="1" /><rect x="220" y="36" width="46" height="46" fill="#111827" stroke="#334155" stroke-width="1" /><rect x="266" y="36" width="46" height="46" fill="#111827" stroke="#334155" stroke-width="1" /><rect x="312" y="36" width="46" height="46" fill="#111827" stroke="#334155" stroke-width="1" /><rect x="358" y="36" width="46" height="46" fill="#111827" stroke="#334155" stroke-width="1" /><rect x="404" y="36" width="46" height="46" fill="#111827" stroke="#334155" stroke-width="1" /><rect x="450" y="36" width="46" height="46" fill="#111827" stroke="#334155" stroke-width="1" /><rect x="496" y="36" width="46" height="46" fill="#111827" stroke="#334155" stroke-width="1" /><rect x="542" y="36" width="46" height="46" fill="#111827" stroke="#334155" stroke-width="1" /><rect x="588" y="36" width="46" height="46" fill="#111827" stroke="#334155" stroke-width="1" /><rect x="634" y="36" width="46" height="46" fill="#111827" stroke="#334155" stroke-width="1" /><rect x="680" y="36" width="46" height="46" fill="#111827" stroke="#334155" stroke-width="1" /><rect x="726" y="36" width="46" height="46" fill="#111827" stroke="#334155" stroke-width="1" /><rect x="36" y="82" width="46" height="46" fill="#111827" stroke="#334155" stroke-width="1" /><rect x="82" y="82" width="46" height="46" fill="#111827" stroke="#334155" stroke-width="1" /><rect x="128" y="82" width="46" height="46" fill="#111827" stroke="#334155" stroke-width="1" /><rect x="174" y="82" width="46" height="46" fill="#111827" stroke="#334155" stroke-width="1" /><rect x="220" y="82" width="46" height="46" fill="#111827" stroke="#334155" stroke-width="1" /><rect x="266" y="82" width="46" height="46" fill="#111827" stroke="#334155" stroke-width="1" /><rect x="312" y="82" width="46" height="46" fill="#111827" stroke="#334155" stroke-width="1" /><rect x="358" y="82" width="46" height="46" fill="#111827" stroke="#334155" stroke-width="1" /><rect x="404" y="82" width="46" height="46" fill="#111827" stroke="#334155" stroke-width="1" /><rect x="450" y="82" width="46" height="46" fill="#111827" stroke="#334155" stroke-width="1" /><rect x="496" y="82" width="46" height="46" fill="#111827" stroke="#334155" stroke-width="1" /><rect x="542" y="82" width="46" height="46" fill="#111827" stroke="#334155" stroke-width="1" /><rect x="588" y="82" width="46" height="46" fill="#111827" stroke="#334155" stroke-width="1" /><rect x="634" y="82" width="46" height="46" fill="#111827" stroke="#334155" stroke-width="1" /><rect x="680" y="82" width="46" height="46" fill="#111827" stroke="#334155" stroke-width="1" /><rect x="726" y="82" width="46" height="46" fill="#111827" stroke="#334155" stroke-width="1" /><rect x="36" y="128" width="46" height="46" fill="#111827" stroke="#334155" stroke-width="1" /><rect x="82" y="128" width="46" height="46" fill="#111827" stroke="#334155" stroke-width="1" /><rect x="128" y="128" width="46" height="46" fill="#111827" stroke="#334155" stroke-width="1" /><rect x="174" y="128" width="46" height="46" fill="#111827" stroke="#334155" stroke-width="1" /><rect x="220" y="128" width="46" height="46" fill="#111827" stroke="#334155" stroke-width="1" /><rect x="266" y="128" width="46" height="46" fill="#111827" stroke="#334155" stroke-width="1" /><rect x="312" y="128" width="46" height="46" fill="#111827" stroke="#334155" stroke-width="1" /><rect x="358" y="128" width="46" height="46" fill="#111827" stroke="#334155" stroke-width="1" /><rect x="404" y="128" width="46" height="46" fill="#111827" stroke="#334155" stroke-width="1" /><rect x="450" y="128" width="46" height="46" fill="#111827" stroke="#334155" stroke-width="1" /><rect x="496" y="128" width="46" height="46" fill="#111827" stroke="#334155" stroke-width="1" /><rect x="542" y="128" width="46" height="46" fill="#111827" stroke="#334155" stroke-width="1" /><rect x="588" y="128" width="46" height="46" fill="#111827" stroke="#334155" stroke-width="1" /><rect x="634" y="128" width="46" height="46" fill="#111827" stroke="#334155" stroke-width="1" /><rect x="680" y="128" width="46" height="46" fill="#111827" stroke="#334155" stroke-width="1" /><rect x="726" y="128" width="46" height="46" fill="#111827" stroke="#334155" stroke-width="1" /><rect x="36" y="174" width="46" height="46" fill="#111827" stroke="#334155" stroke-width="1" /><rect x="82" y="174" width="46" height="46" fill="#111827" stroke="#334155" stroke-width="1" /><rect x="128" y="174" width="46" height="46" fill="#111827" stroke="#334155" stroke-width="1" /><rect x="174" y="174" width="46" height="46" fill="#111827" stroke="#334155" stroke-width="1" /><rect x="220" y="174" width="46" height="46" fill="#111827" stroke="#334155" stroke-width="1" /><rect x="266" y="174" width="46" height="46" fill="#111827" stroke="#334155" stroke-width="1" /><rect x="312" y="174" width="46" height="46" fill="#111827" stroke="#334155" stroke-width="1" /><rect x="358" y="174" width="46" height="46" fill="#111827" stroke="#334155" stroke-width="1" /><rect x="404" y="174" width="46" height="46" fill="#111827" stroke="#334155" stroke-width="1" /><rect x="450" y="174" width="46" height="46" fill="#111827" stroke="#334155" stroke-width="1" /><rect x="496" y="174" width="46" height="46" fill="#111827" stroke="#334155" stroke-width="1" /><rect x="542" y="174" width="46" height="46" fill="#111827" stroke="#334155" stroke-width="1" /><rect x="588" y="174" width="46" height="46" fill="#111827" stroke="#334155" stroke-width="1" /><rect x="634" y="174" width="46" height="46" fill="#111827" stroke="#334155" stroke-width="1" /><rect x="680" y="174" width="46" height="46" fill="#111827" stroke="#334155" stroke-width="1" /><rect x="726" y="174" width="46" height="46" fill="#111827" stroke="#334155" stroke-width="1" /><rect x="36" y="220" width="46" height="46" fill="#111827" stroke="#334155" stroke-width="1" /><rect x="82" y="220" width="46" height="46" fill="#111827" stroke="#334155" stroke-width="1" /><rect x="128" y="220" width="46" height="46" fill="#111827" stroke="#334155" stroke-width="1" /><rect x="174" y="220" width="46" height="46" fill="#111827" stroke="#334155" stroke-width="1" /><rect x="220" y="220" width="46" height="46" fill="#111827" stroke="#334155" stroke-width="1" /><rect x="266" y="220" width="46" height="46" fill="#111827" stroke="#334155" stroke-width="1" /><rect x="312" y="220" width="46" height="46" fill="#7c2d12" stroke="#334155" stroke-width="1" /><rect x="358" y="220" width="46" height="46" fill="#7c2d12" stroke="#334155" stroke-width="1" /><rect x="404" y="220" width="46" height="46" fill="#7c2d12" stroke="#334155" stroke-width="1" /><rect x="450" y="220" width="46" height="46" fill="#111827" stroke="#334155" stroke-width="1" /><rect x="496" y="220" width="46" height="46" fill="#111827" stroke="#334155" stroke-width="1" /><rect x="542" y="220" width="46" height="46" fill="#111827" stroke="#334155" stroke-width="1" /><rect x="588" y="220" width="46" height="46" fill="#111827" stroke="#334155" stroke-width="1" /><rect x="634" y="220" width="46" height="46" fill="#111827" stroke="#334155" stroke-width="1" /><rect x="680" y="220" width="46" height="46" fill="#111827" stroke="#334155" stroke-width="1" /><rect x="726" y="220" width="46" height="46" fill="#111827" stroke="#334155" stroke-width="1" /><rect x="36" y="266" width="46" height="46" fill="#111827" stroke="#334155" stroke-width="1" /><rect x="82" y="266" width="46" height="46" fill="#111827" stroke="#334155" stroke-width="1" /><rect x="128" y="266" width="46" height="46" fill="#111827" stroke="#334155" stroke-width="1" /><rect x="174" y="266" width="46" height="46" fill="#111827" stroke="#334155" stroke-width="1" /><rect x="220" y="266" width="46" height="46" fill="#111827" stroke="#334155" stroke-width="1" /><rect x="266" y="266" width="46" height="46" fill="#111827" stroke="#334155" stroke-width="1" /><rect x="312" y="266" width="46" height="46" fill="#111827" stroke="#334155" stroke-width="1" /><rect x="358" y="266" width="46" height="46" fill="#111827" stroke="#334155" stroke-width="1" /><rect x="404" y="266" width="46" height="46" fill="#111827" stroke="#334155" stroke-width="1" /><rect x="450" y="266" width="46" height="46" fill="#111827" stroke="#334155" stroke-width="1" /><rect x="496" y="266" width="46" height="46" fill="#111827" stroke="#334155" stroke-width="1" /><rect x="542" y="266" width="46" height="46" fill="#111827" stroke="#334155" stroke-width="1" /><rect x="588" y="266" width="46" height="46" fill="#111827" stroke="#334155" stroke-width="1" /><rect x="634" y="266" width="46" height="46" fill="#111827" stroke="#334155" stroke-width="1" /><rect x="680" y="266" width="46" height="46" fill="#111827" stroke="#334155" stroke-width="1" /><rect x="726" y="266" width="46" height="46" fill="#111827" stroke="#334155" stroke-width="1" /><rect x="36" y="312" width="46" height="46" fill="#111827" stroke="#334155" stroke-width="1" /><rect x="82" y="312" width="46" height="46" fill="#111827" stroke="#334155" stroke-width="1" /><rect x="128" y="312" width="46" height="46" fill="#111827" stroke="#334155" stroke-width="1" /><rect x="174" y="312" width="46" height="46" fill="#111827" stroke="#334155" stroke-width="1" /><rect x="220" y="312" width="46" height="46" fill="#111827" stroke="#334155" stroke-width="1" /><rect x="266" y="312" width="46" height="46" fill="#111827" stroke="#334155" stroke-width="1" /><rect x="312" y="312" width="46" height="46" fill="#111827" stroke="#334155" stroke-width="1" /><rect x="358" y="312" width="46" height="46" fill="#111827" stroke="#334155" stroke-width="1" /><rect x="404" y="312" width="46" height="46" fill="#111827" stroke="#334155" stroke-width="1" /><rect x="450" y="312" width="46" height="46" fill="#111827" stroke="#334155" stroke-width="1" /><rect x="496" y="312" width="46" height="46" fill="#111827" stroke="#334155" stroke-width="1" /><rect x="542" y="312" width="46" height="46" fill="#7c2d12" stroke="#334155" stroke-width="1" /><rect x="588" y="312" width="46" height="46" fill="#7c2d12" stroke="#334155" stroke-width="1" /><rect x="634" y="312" width="46" height="46" fill="#111827" stroke="#334155" stroke-width="1" /><rect x="680" y="312" width="46" height="46" fill="#111827" stroke="#334155" stroke-width="1" /><rect x="726" y="312" width="46" height="46" fill="#111827" stroke="#334155" stroke-width="1" /><rect x="36" y="358" width="46" height="46" fill="#111827" stroke="#334155" stroke-width="1" /><rect x="82" y="358" width="46" height="46" fill="#111827" stroke="#334155" stroke-width="1" /><rect x="128" y="358" width="46" height="46" fill="#111827" stroke="#334155" stroke-width="1" /><rect x="174" y="358" width="46" height="46" fill="#111827" stroke="#334155" stroke-width="1" /><rect x="220" y="358" width="46" height="46" fill="#111827" stroke="#334155" stroke-width="1" /><rect x="266" y="358" width="46" height="46" fill="#111827" stroke="#334155" stroke-width="1" /><rect x="312" y="358" width="46" height="46" fill="#111827" stroke="#334155" stroke-width="1" /><rect x="358" y="358" width="46" height="46" fill="#111827" stroke="#334155" stroke-width="1" /><rect x="404" y="358" width="46" height="46" fill="#111827" stroke="#334155" stroke-width="1" /><rect x="450" y="358" width="46" height="46" fill="#111827" stroke="#334155" stroke-width="1" /><rect x="496" y="358" width="46" height="46" fill="#111827" stroke="#334155" stroke-width="1" /><rect x="542" y="358" width="46" height="46" fill="#111827" stroke="#334155" stroke-width="1" /><rect x="588" y="358" width="46" height="46" fill="#7c2d12" stroke="#334155" stroke-width="1" /><rect x="634" y="358" width="46" height="46" fill="#111827" stroke="#334155" stroke-width="1" /><rect x="680" y="358" width="46" height="46" fill="#111827" stroke="#334155" stroke-width="1" /><rect x="726" y="358" width="46" height="46" fill="#111827" stroke="#334155" stroke-width="1" /><rect x="36" y="404" width="46" height="46" fill="#111827" stroke="#334155" stroke-width="1" /><rect x="82" y="404" width="46" height="46" fill="#111827" stroke="#334155" stroke-width="1" /><rect x="128" y="404" width="46" height="46" fill="#111827" stroke="#334155" stroke-width="1" /><rect x="174" y="404" width="46" height="46" fill="#111827" stroke="#334155" stroke-width="1" /><rect x="220" y="404" width="46" height="46" fill="#111827" stroke="#334155" stroke-width="1" /><rect x="266" y="404" width="46" height="46" fill="#111827" stroke="#334155" stroke-width="1" /><rect x="312" y="404" width="46" height="46" fill="#111827" stroke="#334155" stroke-width="1" /><rect x="358" y="404" width="46" height="46" fill="#111827" stroke="#334155" stroke-width="1" /><rect x="404" y="404" width="46" height="46" fill="#111827" stroke="#334155" stroke-width="1" /><rect x="450" y="404" width="46" height="46" fill="#111827" stroke="#334155" stroke-width="1" /><rect x="496" y="404" width="46" height="46" fill="#111827" stroke="#334155" stroke-width="1" /><rect x="542" y="404" width="46" height="46" fill="#111827" stroke="#334155" stroke-width="1" /><rect x="588" y="404" width="46" height="46" fill="#111827" stroke="#334155" stroke-width="1" /><rect x="634" y="404" width="46" height="46" fill="#111827" stroke="#334155" stroke-width="1" /><rect x="680" y="404" width="46" height="46" fill="#111827" stroke="#334155" stroke-width="1" /><rect x="726" y="404" width="46" height="46" fill="#111827" stroke="#334155" stroke-width="1" />
  <polyline points="105.0,243.0 105.0,197.0 151.0,197.0 197.0,197.0 243.0,197.0 289.0,197.0 335.0,197.0 381.0,197.0 427.0,197.0 473.0,197.0 519.0,197.0 565.0,197.0 611.0,197.0 657.0,197.0 703.0,197.0 703.0,243.0" fill="none" stroke="#22c55e" stroke-width="5" stroke-linecap="round" stroke-linejoin="round" opacity="0.6" />
  <circle cx="600.0" cy="197.0" r="10" fill="#22c55e" stroke="#f8fafc" stroke-width="2" /><text x="600.0" y="201.0" text-anchor="middle" fill="#0f172a" font-family="monospace" font-size="9" font-weight="700">1</text><circle cx="692.0" cy="243.0" r="10" fill="#22c55e" stroke="#f8fafc" stroke-width="2" /><text x="692.0" y="247.0" text-anchor="middle" fill="#0f172a" font-family="monospace" font-size="9" font-weight="700">2</text><circle cx="703.0" cy="243.0" r="10" fill="#f97316" stroke="#f8fafc" stroke-width="2" /><text x="703.0" y="247.0" text-anchor="middle" fill="#0f172a" font-family="monospace" font-size="9" font-weight="700">3</text><circle cx="692.0" cy="197.0" r="10" fill="#38bdf8" stroke="#f8fafc" stroke-width="2" /><text x="692.0" y="201.0" text-anchor="middle" fill="#0f172a" font-family="monospace" font-size="9" font-weight="700">4</text><circle cx="646.0" cy="197.0" r="10" fill="#38bdf8" stroke="#f8fafc" stroke-width="2" /><text x="646.0" y="201.0" text-anchor="middle" fill="#0f172a" font-family="monospace" font-size="9" font-weight="700">5</text><circle cx="508.0" cy="197.0" r="10" fill="#38bdf8" stroke="#f8fafc" stroke-width="2" /><text x="508.0" y="201.0" text-anchor="middle" fill="#0f172a" font-family="monospace" font-size="9" font-weight="700">6</text><circle cx="462.0" cy="197.0" r="10" fill="#38bdf8" stroke="#f8fafc" stroke-width="2" /><text x="462.0" y="201.0" text-anchor="middle" fill="#0f172a" font-family="monospace" font-size="9" font-weight="700">7</text><circle cx="324.0" cy="197.0" r="10" fill="#38bdf8" stroke="#f8fafc" stroke-width="2" /><text x="324.0" y="201.0" text-anchor="middle" fill="#0f172a" font-family="monospace" font-size="9" font-weight="700">8</text><circle cx="611.0" cy="197.0" r="10" fill="#22c55e" stroke="#f8fafc" stroke-width="2" /><text x="611.0" y="201.0" text-anchor="middle" fill="#0f172a" font-family="monospace" font-size="9" font-weight="700">9</text><circle cx="714.0" cy="243.0" r="10" fill="#22c55e" stroke="#f8fafc" stroke-width="2" /><text x="714.0" y="247.0" text-anchor="middle" fill="#0f172a" font-family="monospace" font-size="9" font-weight="700">10</text><circle cx="692.0" cy="254.0" r="10" fill="#f97316" stroke="#f8fafc" stroke-width="2" /><text x="692.0" y="258.0" text-anchor="middle" fill="#0f172a" font-family="monospace" font-size="9" font-weight="700">11</text><circle cx="703.0" cy="197.0" r="10" fill="#38bdf8" stroke="#f8fafc" stroke-width="2" /><text x="703.0" y="201.0" text-anchor="middle" fill="#0f172a" font-family="monospace" font-size="9" font-weight="700">12</text>
  <text x="36" y="492" fill="#cbd5e1" font-family="monospace" font-size="15">idle: 0 / route: 4 / engage: 2 / regroup: 6</text>
  <text x="36" y="520" fill="#7dd3fc" font-family="monospace" font-size="14">AOI enter/leave events: 34</text>
</svg>
