<svg xmlns="http://www.w3.org/2000/svg" width="772" height="556" viewBox="0 0 772 556">
  <rect width="100%" height="100%" fill="#0f172a" />
  <text x="34" y="24" fill="#e2e8f0" font-family="monospace" font-size="16" font-weight="700">TRAP-AWARE ROUTE VALIDATION / SYNTHETIC SECTOR 380</text>
  <rect x="34" y="34" width="44" height="44" fill="#f8fafc" stroke="#cbd5e1" stroke-width="1" /><rect x="78" y="34" width="44" height="44" fill="#f8fafc" stroke="#cbd5e1" stroke-width="1" /><rect x="122" y="34" width="44" height="44" fill="#f8fafc" stroke="#cbd5e1" stroke-width="1" /><rect x="166" y="34" width="44" height="44" fill="#f8fafc" stroke="#cbd5e1" stroke-width="1" /><rect x="210" y="34" width="44" height="44" fill="#f8fafc" stroke="#cbd5e1" stroke-width="1" /><rect x="254" y="34" width="44" height="44" fill="#f8fafc" stroke="#cbd5e1" stroke-width="1" /><rect x="298" y="34" width="44" height="44" fill="#f8fafc" stroke="#cbd5e1" stroke-width="1" /><rect x="342" y="34" width="44" height="44" fill="#f8fafc" stroke="#cbd5e1" stroke-width="1" /><rect x="386" y="34" width="44" height="44" fill="#f8fafc" stroke="#cbd5e1" stroke-width="1" /><rect x="430" y="34" width="44" height="44" fill="#f8fafc" stroke="#cbd5e1" stroke-width="1" /><rect x="474" y="34" width="44" height="44" fill="#f8fafc" stroke="#cbd5e1" stroke-width="1" /><rect x="518" y="34" width="44" height="44" fill="#f8fafc" stroke="#cbd5e1" stroke-width="1" /><rect x="562" y="34" width="44" height="44" fill="#f8fafc" stroke="#cbd5e1" stroke-width="1" /><rect x="606" y="34" width="44" height="44" fill="#f8fafc" stroke="#cbd5e1" stroke-width="1" /><rect x="650" y="34" width="44" height="44" fill="#f8fafc" stroke="#cbd5e1" stroke-width="1" /><rect x="694" y="34" width="44" height="44" fill="#f8fafc" stroke="#cbd5e1" stroke-width="1" /><rect x="34" y="78" width="44" height="44" fill="#f8fafc" stroke="#cbd5e1" stroke-width="1" /><rect x="78" y="78" width="44" height="44" fill="#f8fafc" stroke="#cbd5e1" stroke-width="1" /><rect x="122" y="78" width="44" height="44" fill="#f8fafc" stroke="#cbd5e1" stroke-width="1" /><rect x="166" y="78" width="44" height="44" fill="#f8fafc" stroke="#cbd5e1" stroke-width="1" /><rect x="210" y="78" width="44" height="44" fill="#f8fafc" stroke="#cbd5e1" stroke-width="1" /><rect x="254" y="78" width="44" height="44" fill="#f8fafc" stroke="#cbd5e1" stroke-width="1" /><rect x="298" y="78" width="44" height="44" fill="#f8fafc" stroke="#cbd5e1" stroke-width="1" /><rect x="342" y="78" width="44" height="44" fill="#f8fafc" stroke="#cbd5e1" stroke-width="1" /><rect x="386" y="78" width="44" height="44" fill="#f8fafc" stroke="#cbd5e1" stroke-width="1" /><rect x="430" y="78" width="44" height="44" fill="#f8fafc" stroke="#cbd5e1" stroke-width="1" /><rect x="474" y="78" width="44" height="44" fill="#f8fafc" stroke="#cbd5e1" stroke-width="1" /><rect x="518" y="78" width="44" height="44" fill="#f8fafc" stroke="#cbd5e1" stroke-width="1" /><rect x="562" y="78" width="44" height="44" fill="#f8fafc" stroke="#cbd5e1" stroke-width="1" /><rect x="606" y="78" width="44" height="44" fill="#f8fafc" stroke="#cbd5e1" stroke-width="1" /><rect x="650" y="78" width="44" height="44" fill="#f8fafc" stroke="#cbd5e1" stroke-width="1" /><rect x="694" y="78" width="44" height="44" fill="#f8fafc" stroke="#cbd5e1" stroke-width="1" /><rect x="34" y="122" width="44" height="44" fill="#f8fafc" stroke="#cbd5e1" stroke-width="1" /><rect x="78" y="122" width="44" height="44" fill="#f8fafc" stroke="#cbd5e1" stroke-width="1" /><rect x="122" y="122" width="44" height="44" fill="#f8fafc" stroke="#cbd5e1" stroke-width="1" /><rect x="166" y="122" width="44" height="44" fill="#f8fafc" stroke="#cbd5e1" stroke-width="1" /><rect x="210" y="122" width="44" height="44" fill="#f8fafc" stroke="#cbd5e1" stroke-width="1" /><rect x="254" y="122" width="44" height="44" fill="#f8fafc" stroke="#cbd5e1" stroke-width="1" /><rect x="298" y="122" width="44" height="44" fill="#f8fafc" stroke="#cbd5e1" stroke-width="1" /><rect x="342" y="122" width="44" height="44" fill="#f8fafc" stroke="#cbd5e1" stroke-width="1" /><rect x="386" y="122" width="44" height="44" fill="#f8fafc" stroke="#cbd5e1" stroke-width="1" /><rect x="430" y="122" width="44" height="44" fill="#f8fafc" stroke="#cbd5e1" stroke-width="1" /><rect x="474" y="122" width="44" height="44" fill="#f8fafc" stroke="#cbd5e1" stroke-width="1" /><rect x="518" y="122" width="44" height="44" fill="#f8fafc" stroke="#cbd5e1" stroke-width="1" /><rect x="562" y="122" width="44" height="44" fill="#f8fafc" stroke="#cbd5e1" stroke-width="1" /><rect x="606" y="122" width="44" height="44" fill="#f8fafc" stroke="#cbd5e1" stroke-width="1" /><rect x="650" y="122" width="44" height="44" fill="#f8fafc" stroke="#cbd5e1" stroke-width="1" /><rect x="694" y="122" width="44" height="44" fill="#f8fafc" stroke="#cbd5e1" stroke-width="1" /><rect x="34" y="166" width="44" height="44" fill="#f8fafc" stroke="#cbd5e1" stroke-width="1" /><rect x="78" y="166" width="44" height="44" fill="#f8fafc" stroke="#cbd5e1" stroke-width="1" /><rect x="122" y="166" width="44" height="44" fill="#f8fafc" stroke="#cbd5e1" stroke-width="1" /><rect x="166" y="166" width="44" height="44" fill="#f8fafc" stroke="#cbd5e1" stroke-width="1" /><rect x="210" y="166" width="44" height="44" fill="#f8fafc" stroke="#cbd5e1" stroke-width="1" /><rect x="254" y="166" width="44" height="44" fill="#f8fafc" stroke="#cbd5e1" stroke-width="1" /><rect x="298" y="166" width="44" height="44" fill="#f8fafc" stroke="#cbd5e1" stroke-width="1" /><rect x="342" y="166" width="44" height="44" fill="#f8fafc" stroke="#cbd5e1" stroke-width="1" /><rect x="386" y="166" width="44" height="44" fill="#f8fafc" stroke="#cbd5e1" stroke-width="1" /><rect x="430" y="166" width="44" height="44" fill="#f8fafc" stroke="#cbd5e1" stroke-width="1" /><rect x="474" y="166" width="44" height="44" fill="#f8fafc" stroke="#cbd5e1" stroke-width="1" /><rect x="518" y="166" width="44" height="44" fill="#f8fafc" stroke="#cbd5e1" stroke-width="1" /><rect x="562" y="166" width="44" height="44" fill="#f8fafc" stroke="#cbd5e1" stroke-width="1" /><rect x="606" y="166" width="44" height="44" fill="#f8fafc" stroke="#cbd5e1" stroke-width="1" /><rect x="650" y="166" width="44" height="44" fill="#f8fafc" stroke="#cbd5e1" stroke-width="1" /><rect x="694" y="166" width="44" height="44" fill="#f8fafc" stroke="#cbd5e1" stroke-width="1" /><rect x="34" y="210" width="44" height="44" fill="#f8fafc" stroke="#cbd5e1" stroke-width="1" /><rect x="78" y="210" width="44" height="44" fill="#f8fafc" stroke="#cbd5e1" stroke-width="1" /><rect x="122" y="210" width="44" height="44" fill="#f8fafc" stroke="#cbd5e1" stroke-width="1" /><rect x="166" y="210" width="44" height="44" fill="#f8fafc" stroke="#cbd5e1" stroke-width="1" /><rect x="210" y="210" width="44" height="44" fill="#f8fafc" stroke="#cbd5e1" stroke-width="1" /><rect x="254" y="210" width="44" height="44" fill="#f8fafc" stroke="#cbd5e1" stroke-width="1" /><rect x="298" y="210" width="44" height="44" fill="#fed7aa" stroke="#cbd5e1" stroke-width="1" /><path d="M 310.0 222.0 L 330.0 242.0 M 330.0 222.0 L 310.0 242.0" stroke="#c2410c" stroke-width="4" stroke-linecap="round" /><rect x="342" y="210" width="44" height="44" fill="#fed7aa" stroke="#cbd5e1" stroke-width="1" /><path d="M 354.0 222.0 L 374.0 242.0 M 374.0 222.0 L 354.0 242.0" stroke="#c2410c" stroke-width="4" stroke-linecap="round" /><rect x="386" y="210" width="44" height="44" fill="#fed7aa" stroke="#cbd5e1" stroke-width="1" /><path d="M 398.0 222.0 L 418.0 242.0 M 418.0 222.0 L 398.0 242.0" stroke="#c2410c" stroke-width="4" stroke-linecap="round" /><rect x="430" y="210" width="44" height="44" fill="#f8fafc" stroke="#cbd5e1" stroke-width="1" /><rect x="474" y="210" width="44" height="44" fill="#f8fafc" stroke="#cbd5e1" stroke-width="1" /><rect x="518" y="210" width="44" height="44" fill="#f8fafc" stroke="#cbd5e1" stroke-width="1" /><rect x="562" y="210" width="44" height="44" fill="#f8fafc" stroke="#cbd5e1" stroke-width="1" /><rect x="606" y="210" width="44" height="44" fill="#f8fafc" stroke="#cbd5e1" stroke-width="1" /><rect x="650" y="210" width="44" height="44" fill="#f8fafc" stroke="#cbd5e1" stroke-width="1" /><rect x="694" y="210" width="44" height="44" fill="#f8fafc" stroke="#cbd5e1" stroke-width="1" /><rect x="34" y="254" width="44" height="44" fill="#f8fafc" stroke="#cbd5e1" stroke-width="1" /><rect x="78" y="254" width="44" height="44" fill="#f8fafc" stroke="#cbd5e1" stroke-width="1" /><rect x="122" y="254" width="44" height="44" fill="#f8fafc" stroke="#cbd5e1" stroke-width="1" /><rect x="166" y="254" width="44" height="44" fill="#f8fafc" stroke="#cbd5e1" stroke-width="1" /><rect x="210" y="254" width="44" height="44" fill="#f8fafc" stroke="#cbd5e1" stroke-width="1" /><rect x="254" y="254" width="44" height="44" fill="#f8fafc" stroke="#cbd5e1" stroke-width="1" /><rect x="298" y="254" width="44" height="44" fill="#f8fafc" stroke="#cbd5e1" stroke-width="1" /><rect x="342" y="254" width="44" height="44" fill="#f8fafc" stroke="#cbd5e1" stroke-width="1" /><rect x="386" y="254" width="44" height="44" fill="#f8fafc" stroke="#cbd5e1" stroke-width="1" /><rect x="430" y="254" width="44" height="44" fill="#f8fafc" stroke="#cbd5e1" stroke-width="1" /><rect x="474" y="254" width="44" height="44" fill="#f8fafc" stroke="#cbd5e1" stroke-width="1" /><rect x="518" y="254" width="44" height="44" fill="#f8fafc" stroke="#cbd5e1" stroke-width="1" /><rect x="562" y="254" width="44" height="44" fill="#f8fafc" stroke="#cbd5e1" stroke-width="1" /><rect x="606" y="254" width="44" height="44" fill="#f8fafc" stroke="#cbd5e1" stroke-width="1" /><rect x="650" y="254" width="44" height="44" fill="#f8fafc" stroke="#cbd5e1" stroke-width="1" /><rect x="694" y="254" width="44" height="44" fill="#f8fafc" stroke="#cbd5e1" stroke-width="1" /><rect x="34" y="298" width="44" height="44" fill="#f8fafc" stroke="#cbd5e1" stroke-width="1" /><rect x="78" y="298" width="44" height="44" fill="#f8fafc" stroke="#cbd5e1" stroke-width="1" /><rect x="122" y="298" width="44" height="44" fill="#f8fafc" stroke="#cbd5e1" stroke-width="1" /><rect x="166" y="298" width="44" height="44" fill="#f8fafc" stroke="#cbd5e1" stroke-width="1" /><rect x="210" y="298" width="44" height="44" fill="#f8fafc" stroke="#cbd5e1" stroke-width="1" /><rect x="254" y="298" width="44" height="44" fill="#f8fafc" stroke="#cbd5e1" stroke-width="1" /><rect x="298" y="298" width="44" height="44" fill="#f8fafc" stroke="#cbd5e1" stroke-width="1" /><rect x="342" y="298" width="44" height="44" fill="#f8fafc" stroke="#cbd5e1" stroke-width="1" /><rect x="386" y="298" width="44" height="44" fill="#f8fafc" stroke="#cbd5e1" stroke-width="1" /><rect x="430" y="298" width="44" height="44" fill="#f8fafc" stroke="#cbd5e1" stroke-width="1" /><rect x="474" y="298" width="44" height="44" fill="#f8fafc" stroke="#cbd5e1" stroke-width="1" /><rect x="518" y="298" width="44" height="44" fill="#fed7aa" stroke="#cbd5e1" stroke-width="1" /><path d="M 530.0 310.0 L 550.0 330.0 M 550.0 310.0 L 530.0 330.0" stroke="#c2410c" stroke-width="4" stroke-linecap="round" /><rect x="562" y="298" width="44" height="44" fill="#fed7aa" stroke="#cbd5e1" stroke-width="1" /><path d="M 574.0 310.0 L 594.0 330.0 M 594.0 310.0 L 574.0 330.0" stroke="#c2410c" stroke-width="4" stroke-linecap="round" /><rect x="606" y="298" width="44" height="44" fill="#f8fafc" stroke="#cbd5e1" stroke-width="1" /><rect x="650" y="298" width="44" height="44" fill="#f8fafc" stroke="#cbd5e1" stroke-width="1" /><rect x="694" y="298" width="44" height="44" fill="#f8fafc" stroke="#cbd5e1" stroke-width="1" /><rect x="34" y="342" width="44" height="44" fill="#f8fafc" stroke="#cbd5e1" stroke-width="1" /><rect x="78" y="342" width="44" height="44" fill="#f8fafc" stroke="#cbd5e1" stroke-width="1" /><rect x="122" y="342" width="44" height="44" fill="#f8fafc" stroke="#cbd5e1" stroke-width="1" /><rect x="166" y="342" width="44" height="44" fill="#f8fafc" stroke="#cbd5e1" stroke-width="1" /><rect x="210" y="342" width="44" height="44" fill="#f8fafc" stroke="#cbd5e1" stroke-width="1" /><rect x="254" y="342" width="44" height="44" fill="#f8fafc" stroke="#cbd5e1" stroke-width="1" /><rect x="298" y="342" width="44" height="44" fill="#f8fafc" stroke="#cbd5e1" stroke-width="1" /><rect x="342" y="342" width="44" height="44" fill="#f8fafc" stroke="#cbd5e1" stroke-width="1" /><rect x="386" y="342" width="44" height="44" fill="#f8fafc" stroke="#cbd5e1" stroke-width="1" /><rect x="430" y="342" width="44" height="44" fill="#f8fafc" stroke="#cbd5e1" stroke-width="1" /><rect x="474" y="342" width="44" height="44" fill="#f8fafc" stroke="#cbd5e1" stroke-width="1" /><rect x="518" y="342" width="44" height="44" fill="#f8fafc" stroke="#cbd5e1" stroke-width="1" /><rect x="562" y="342" width="44" height="44" fill="#fed7aa" stroke="#cbd5e1" stroke-width="1" /><path d="M 574.0 354.0 L 594.0 374.0 M 594.0 354.0 L 574.0 374.0" stroke="#c2410c" stroke-width="4" stroke-linecap="round" /><rect x="606" y="342" width="44" height="44" fill="#f8fafc" stroke="#cbd5e1" stroke-width="1" /><rect x="650" y="342" width="44" height="44" fill="#f8fafc" stroke="#cbd5e1" stroke-width="1" /><rect x="694" y="342" width="44" height="44" fill="#f8fafc" stroke="#cbd5e1" stroke-width="1" /><rect x="34" y="386" width="44" height="44" fill="#f8fafc" stroke="#cbd5e1" stroke-width="1" /><rect x="78" y="386" width="44" height="44" fill="#f8fafc" stroke="#cbd5e1" stroke-width="1" /><rect x="122" y="386" width="44" height="44" fill="#f8fafc" stroke="#cbd5e1" stroke-width="1" /><rect x="166" y="386" width="44" height="44" fill="#f8fafc" stroke="#cbd5e1" stroke-width="1" /><rect x="210" y="386" width="44" height="44" fill="#f8fafc" stroke="#cbd5e1" stroke-width="1" /><rect x="254" y="386" width="44" height="44" fill="#f8fafc" stroke="#cbd5e1" stroke-width="1" /><rect x="298" y="386" width="44" height="44" fill="#f8fafc" stroke="#cbd5e1" stroke-width="1" /><rect x="342" y="386" width="44" height="44" fill="#f8fafc" stroke="#cbd5e1" stroke-width="1" /><rect x="386" y="386" width="44" height="44" fill="#f8fafc" stroke="#cbd5e1" stroke-width="1" /><rect x="430" y="386" width="44" height="44" fill="#f8fafc" stroke="#cbd5e1" stroke-width="1" /><rect x="474" y="386" width="44" height="44" fill="#f8fafc" stroke="#cbd5e1" stroke-width="1" /><rect x="518" y="386" width="44" height="44" fill="#f8fafc" stroke="#cbd5e1" stroke-width="1" /><rect x="562" y="386" width="44" height="44" fill="#f8fafc" stroke="#cbd5e1" stroke-width="1" /><rect x="606" y="386" width="44" height="44" fill="#f8fafc" stroke="#cbd5e1" stroke-width="1" /><rect x="650" y="386" width="44" height="44" fill="#f8fafc" stroke="#cbd5e1" stroke-width="1" /><rect x="694" y="386" width="44" height="44" fill="#f8fafc" stroke="#cbd5e1" stroke-width="1" />
  <polyline points="100.0,232.0 144.0,232.0 188.0,232.0 232.0,232.0 276.0,232.0 320.0,232.0 364.0,232.0 408.0,232.0 452.0,232.0 496.0,232.0 540.0,232.0 584.0,232.0 628.0,232.0 672.0,232.0" fill="none" stroke="#dc2626" stroke-width="10" stroke-linecap="round" stroke-linejoin="round" opacity="0.82" />
  <polyline points="100.0,232.0 100.0,188.0 144.0,188.0 188.0,188.0 232.0,188.0 276.0,188.0 320.0,188.0 364.0,188.0 408.0,188.0 452.0,188.0 496.0,188.0 540.0,188.0 584.0,188.0 628.0,188.0 672.0,188.0 672.0,232.0" fill="none" stroke="#16a34a" stroke-width="8" stroke-linecap="round" stroke-linejoin="round" opacity="0.92" />
  <circle cx="100.0" cy="232.0" r="9" fill="#f8fafc" stroke="#0f172a" stroke-width="3" />
  <circle cx="672.0" cy="232.0" r="9" fill="#f8fafc" stroke="#0f172a" stroke-width="3" />
  <line x1="34" y1="474" x2="76" y2="474" stroke="#dc2626" stroke-width="8" stroke-linecap="round" />
  <text x="88" y="479" fill="#fecaca" font-family="monospace" font-size="15">Rejected route: crosses three trap tiles</text>
  <line x1="424" y1="474" x2="466" y2="474" stroke="#16a34a" stroke-width="8" stroke-linecap="round" />
  <text x="478" y="479" fill="#bbf7d0" font-family="monospace" font-size="15">Validated detour</text>
</svg>
